<?xml version="1.0" standalone="no"?>
<svg viewBox="0 0 200 200" xmlns="http://www.w3.org/2000/svg">
  <path fill="#FFD6E8" d="M41.4,-68.1C52.7,-57.2,60.2,-44,67.4,-30.2C74.7,-16.3,81.7,-1.8,80.7,12.2C79.7,26.2,70.5,39.7,59.8,51.5C49.1,63.2,36.8,73.2,22,79.9C7.2,86.6,-10.1,89.9,-23.3,83.9C-36.5,77.9,-45.6,62.7,-57.3,49.5C-69,36.3,-83.3,25.1,-84.6,12.5C-86,-0.2,-74.5,-14.5,-65.4,-28C-56.3,-41.5,-49.7,-54.3,-39.2,-65.6C-28.7,-76.9,-14.4,-86.7,0.4,-87.2C15.1,-87.8,30.1,-79.1,41.4,-68.1Z" transform="translate(100 100)" />
</svg>
