<svg width="3785" height="626" viewBox="0 0 3785 626" fill="none" xmlns="http://www.w3.org/2000/svg">
<g clip-path="url(#clip0)">
<path d="M3785 425.317C3552.22 418.063 3233.47 406.851 3090.45 404.371C2887.68 400.856 2684.65 423.17 2400.5 434.938C2116.36 446.706 2015.24 439.638 1791.93 430.238C1568.61 420.839 1376.12 423.17 1122.25 429.054C868.387 434.938 736.994 434.938 473.125 424.354C336.865 418.878 149.507 419.692 0 421.764V626H3785V425.317Z" fill="#D4C1D7"/>
<path d="M3785 445C3468.03 447.013 3034.06 450.932 2705.28 459.314C2158.48 473.261 2034.78 463.963 1673.82 450.016C1396.72 439.327 409.8 456.679 -35 465.354V626.239H3785V445Z" fill="#968BA9"/>
<path d="M3785 492.876C3666.31 491.891 3542.49 491.344 3455.71 492.154C3232.39 494.233 2907.96 499.813 2684.65 495.633C2461.33 491.453 2218.01 485.194 1944.14 485.194C1670.27 485.194 1457.23 494.233 1213.9 494.233C970.582 494.233 919.755 493.532 615.333 490.053C424.731 487.864 166.54 490.6 0 492.963V626H3785V492.876Z" fill="#29495E"/>
</g>
<defs>
<clipPath id="clip0">
<rect width="3785" height="626" fill="white"/>
</clipPath>
</defs>
</svg>
