<svg width="3840" height="2560" viewBox="0 0 3840 2560" fill="none" xmlns="http://www.w3.org/2000/svg">
<g clip-path="url(#clip0)">
<path d="M3833 811.704C3597.27 748.517 3274.48 650.834 3129.64 629.234C2924.31 598.608 2718.69 793.006 2430.94 895.524C2143.19 998.043 2040.8 936.467 1814.65 854.581C1588.5 772.696 1393.57 793.006 1136.48 844.265C879.4 895.524 746.34 895.524 479.125 803.322C341.137 755.609 151.403 762.702 0 780.755V2560H3833V811.704Z" fill="#D4C1D7"/>
<path d="M3833 978C3514.95 995.574 3079.51 1029.78 2749.6 1102.95C2200.95 1224.69 2076.82 1143.53 1714.64 1021.79C1436.59 928.485 446.314 1079.94 0 1155.67V2560H3833V978Z" fill="#968BA9"/>
<path d="M3840 1208.01C3719.59 1198.01 3593.97 1192.45 3505.92 1200.68C3279.36 1221.79 2950.22 1278.47 2723.66 1236.02C2497.1 1193.57 2250.24 1130 1972.39 1130C1694.54 1130 1478.4 1221.79 1231.54 1221.79C984.686 1221.79 933.12 1214.68 624.274 1179.34C430.903 1157.12 168.96 1184.9 0 1208.9V2560H3840V1208.01Z" fill="#29495E"/>
</g>
<defs>
<clipPath id="clip0">
<rect width="3840" height="2560" fill="white"/>
</clipPath>
</defs>
</svg>
